:SAMPLES-PER-SECOND 30
:FULLY-SPECIFIED
:DEGREES
195
root  -5.011088829 36.75933297 5.221866623 7.572006226 -11.25799561 -3
lowerback  13.01599979 6.95912981 -3.980449915
upperback  4.682559967 8.501119614 -3.676249981
thorax  -2.298700094 4.200119972 -2.881279945
lowerneck  3.812920094 -6.201590061 -13.0230999
upperneck  1.60702002 -9.152649879 21.48920059
head  1.45472002 -4.71916008 8.708439827
lclavicle  0 -9.442270133e-015 7.951389973e-016
lhumerus  -10.59879971 -24.77659988 82.45379639
lradius  2.621537552e-031 -2.365667961e-031 137.9369965
lwrist  -1.412450015e-030 1.765562519e-031 11.27299976
lhand  -1.496451383e-031 -27.76390076 20.11240005
lfingers  90 7.125020027 -90
lthumb  89.89689403 5.08795885 91.16245106
rclavicle  0 -9.442270133e-015 7.951389973e-016
rhumerus  30.24740028 -6.785299778 -56.65159988
rradius  2.3034585e-031 2.67636376e-031 49.28250122
rwrist  7.062250077e-031 -1.765562519e-031 -3.08949995
rhand  -7.920061211e-032 -33.2840004 9.303460121
rfingers  -90 -7.125020027 -90
rthumb  -92.93752616 -24.25625642 -97.11982154
rfemur  -2.114089966 10.51430035 14.69919968
rtibia  -0 0 53.02679825
rfoot  -0 -11.40460014 15.56210041
rtoes  5.373923086 19.29304026 -105.8922705
lfemur  -56.41680145 -8.209219933 0.2201389968
ltibia  -0 0 51.85469818
lfoot  8.853842728e-032 4.394569874 5.835690022
ltoes  -4.250644065 -19.5611806 -102.515957
196
root  -5.06928887 37.09777772 5.02726675 7.854003906 -12.36799622 -3.013000488
lowerback  13.07769966 6.887720108 -4.10916996
upperback  4.716720104 8.382049561 -3.696990013
thorax  -2.312550068 4.13778019 -2.821029902
lowerneck  3.484440088 -6.032770157 -12.93869972
upperneck  1.697260022 -8.892359734 21.14520073
head  1.469419956 -4.568870068 8.576729774
lclavicle  0 -9.442270133e-015 7.951389973e-016
lhumerus  -10.22990036 -24.66950035 82.31349945
lradius  2.629368076e-031 -2.35696151e-031 138.1269989
lwrist  0 -0 10.59500027
lhand  -1.496451383e-031 -27.76390076 20.11240005
lfingers  90 7.125020027 -90
lthumb  89.89689403 5.08795885 91.16245106
rclavicle  0 -9.442270133e-015 7.951389973e-016
rhumerus  29.08979988 -6.417290211 -58.38610077
rradius  2.222596853e-031 2.743885432e-031 50.9919014
rwrist  3.531125038e-031 -3.531125038e-031 -3.631779909
rhand  -7.920061211e-032 -33.2840004 9.303460121
rfingers  -90 -7.125020027 -90
rthumb  -92.93752616 -24.25625642 -97.11982154
rfemur  -3.232939959 10.97859955 13.85630035
rtibia  -0 0 52.33050156
rfoot  -0 -8.931409836 17.54159927
rtoes  5.373923086 19.29304026 -105.8922705
lfemur  -54.91989899 -9.183019638 1.363309979
ltibia  -0 0 49.14490128
lfoot  -0 5.248829842 7.802430153
ltoes  -4.250644065 -19.5611806 -102.515957
197
root  -5.130066834 37.43555565 4.817200082 8.149002075 -13.50999451 -3.089004517
lowerback  13.18929958 6.790329933 -4.147630215
upperback  4.749569893 8.236280441 -3.713239908
thorax  -2.342869997 4.062839985 -2.806329966
lowerneck  3.117860079 -5.820159912 -12.87679958
upperneck  1.825139999 -8.573989868 20.78960037
head  1.492699981 -4.387340069 8.446829796
lclavicle  0 -9.442270133e-015 7.951389973e-016
lhumerus  -9.727089882 -24.50169945 82.02829742
lradius  2.641427868e-031 -2.343438255e-031 138.4210052
lwrist  -7.062250077e-031 1.765562519e-031 10.2468996
lhand  -1.496451383e-031 -27.76390076 20.11240005
lfingers  90 7.125020027 -90
lthumb  89.89689403 5.08795885 91.16245106
rclavicle  0 -9.442270133e-015 7.951389973e-016
rhumerus  27.80690002 -5.945330143 -60.02560043
rradius  2.131590259e-031 2.815167314e-031 52.86769867
rwrist  7.062250077e-031 -0 -3.923379898
rhand  -7.920061211e-032 -33.2840004 9.303460121
rfingers  -90 -7.125020027 -90
rthumb  -92.93752616 -24.25625642 -97.11982154
rfemur  -4.36619997 11.41769981 13.08909988
rtibia  -0 0 51.57889938
rfoot  -0 -6.986470222 19.41830063
rtoes  5.373923086 19.29304026 -105.8922705
lfemur  -53.44020081 -10.02079964 2.524120092
ltibia  -0 0 46.42699814
lfoot  -0 6.295460224 9.638250351
ltoes  -4.250644065 -19.5611806 -102.515957
198
root  -5.197066585 37.7764454 4.600155447 8.49899292 -14.78199768 -3.248001099
lowerback  13.2876997 6.694250107 -4.202209949
upperback  4.736889839 8.08893013 -3.721689939
thorax  -2.417360067 3.986969948 -2.776279926
lowerneck  2.797509909 -5.531899929 -12.78629971
upperneck  1.91542995 -8.150409698 20.47240067
head  1.480780005 -4.157589912 8.332489967
lclavicle  0 -9.442270133e-015 7.951389973e-016
lhumerus  -9.208649635 -24.12940025 81.54239655
lradius  2.656099913e-031 -2.326795497e-031 138.7810059
lwrist  -7.062250077e-031 -1.765562519e-031 10.31060028
lhand  -1.496451383e-031 -27.76390076 20.11240005
lfingers  90 7.125020027 -90
lthumb  89.89689403 5.08795885 91.16245106
rclavicle  0 -9.442270133e-015 7.951389973e-016
rhumerus  26.46559906 -5.217140198 -61.50529861
rradius  2.037463406e-031 2.884022695e-031 54.76010132
rwrist  7.062250077e-031 -1.765562519e-031 -4.303740025
rhand  -7.920061211e-032 -33.2840004 9.303460121
rfingers  -90 -7.125020027 -90
rthumb  -92.93752616 -24.25625642 -97.11982154
rfemur  -5.530640125 11.94979954 12.38879967
rtibia  -0 0 50.78720093
rfoot  -0 -5.975969791 20.82999992
rtoes  5.373923086 19.29304026 -105.8922705
lfemur  -52.01810074 -10.69939995 3.780829906
ltibia  -0 0 43.76089859
lfoot  -0 7.449260235 11.49909973
ltoes  -4.250644065 -19.5611806 -102.515957
